<svg width="32" height="33" viewBox="0 0 32 33" fill="none" xmlns="http://www.w3.org/2000/svg">
<path d="M14.2216 21.9974H10.666V25.5529H14.2216V21.9974Z" fill="#D0EAFF"/>
<path d="M10.6669 21.9974H7.11133V25.5529H10.6669V21.9974Z" fill="#D0EAFF"/>
<path d="M10.6669 18.4418H7.11133V21.9974H10.6669V18.4418Z" fill="#D0EAFF"/>
<path d="M3.55566 4.2196H21.3334V7.77516H17.7779V11.3307H14.2223V14.8863H10.6668V18.4418H7.11122V25.5529H14.2223V29.1085H3.55566V4.2196Z" fill="#D0EAFF"/>
<path d="M21.3339 18.4418H17.7783V21.9974H21.3339V18.4418Z" fill="#D0EAFF"/>
<path d="M14.2217 21.9974V29.1085H17.7772V25.5529H21.3328V21.9974H14.2217Z" fill="#89CDFF"/>
<path d="M24.8882 7.77516V4.2196H21.3327V7.77516H17.7771V11.3307H14.2216V14.8863H10.666V21.9974H17.7771V18.4418H21.3327V14.8863H24.8882V11.3307H28.4438V7.77516H24.8882Z" fill="#D38100"/>
<path d="M10.6669 18.4418H7.11133V21.9974H10.6669V18.4418Z" fill="#FFB100"/>
<path d="M14.2216 21.9974H10.666V25.5529H14.2216V21.9974Z" fill="#FFB100"/>
<path d="M10.6669 21.9974H7.11133V25.5529H10.6669V21.9974Z" fill="#343341"/>
</svg>
