<svg width="32" height="33" viewBox="0 0 32 33" fill="none" xmlns="http://www.w3.org/2000/svg">
<g clip-path="url(#clip0_65_2324)">
<path d="M10.5537 4.35217H21.1068V7.86986H24.6245V11.3875H17.5891V7.86986H10.5537V4.35217Z" fill="#D38100"/>
<path d="M7.03613 7.86987H10.5538V11.3876H7.03613V7.86987Z" fill="#D38100"/>
<path d="M3.51855 11.3875H7.03624V21.9406H3.51855V11.3875Z" fill="#D38100"/>
<path d="M24.624 11.3875H28.1417V21.9406H24.624V11.3875Z" fill="#D38100"/>
<path d="M7.03613 21.9406H10.5538V25.4583H7.03613V21.9406Z" fill="#D38100"/>
<path d="M21.1064 21.9406H24.6241V25.4583H21.1064V21.9406Z" fill="#D38100"/>
<path d="M10.5537 25.4583H21.1068V28.9759H10.5537V25.4583Z" fill="#D38100"/>
<path fill-rule="evenodd" clip-rule="evenodd" d="M10.5538 7.86987H21.1069V11.3876H24.6246V21.9406H21.1069V25.4583H10.5538V21.9406H7.03613V11.3876H10.5538V7.86987ZM14.0715 11.3876H17.5892V14.9052H21.1069V18.4229H17.5892V21.9406H14.0715V18.4229H10.5538V14.9052H14.0715V11.3876Z" fill="white"/>
<path d="M14.0714 11.3875H17.5891V14.9052H21.1068V18.4229H17.5891V21.9406H14.0714V18.4229H10.5537V14.9052H14.0714V11.3875Z" fill="#89CDFF"/>
<path d="M24.624 25.4583H28.1417V28.9759H24.624V25.4583Z" fill="#FFB100"/>
<path d="M28.1416 28.976H31.6593V32.4936H28.1416V28.976Z" fill="#FFB100"/>
</g>
<defs>
<clipPath id="clip0_65_2324">
<rect width="31.6592" height="31.6592" fill="white" transform="translate(0 0.834473)"/>
</clipPath>
</defs>
</svg>
